<svg width="94" height="61" viewBox="0 0 94 61" fill="none" xmlns="http://www.w3.org/2000/svg">
<path d="M4.71549 57L4.48449 55.779H2.74649L2.51549 57H1.01949L2.50449 49.3H4.78149L6.18949 57H4.71549ZM3.59349 50.73L3.16449 53.293L2.92249 54.602H4.29749L4.04449 53.293L3.61549 50.73H3.59349ZM6.61007 49.3H9.53607C9.99807 49.454 10.3904 49.74 10.7131 50.158C11.0431 50.5687 11.2081 51.0747 11.2081 51.676C11.2081 52.6587 10.8194 53.381 10.0421 53.843L11.1531 57H9.61307L8.67807 54.195H8.09507V57H6.61007V49.3ZM8.09507 50.62V52.963H9.04107C9.16574 52.9337 9.3014 52.809 9.44807 52.589C9.60207 52.3617 9.67907 52.0977 9.67907 51.797C9.67907 51.4963 9.61307 51.2323 9.48107 51.005C9.3564 50.7777 9.23174 50.6493 9.10707 50.62H8.09507ZM12.9182 50.62H11.2572V49.3H16.0752V50.62H14.4142V57H12.9182V50.62ZM19.0516 57L18.8206 55.779H17.0826L16.8516 57H15.3556L16.8406 49.3H19.1176L20.5256 57H19.0516ZM17.9296 50.73L17.5006 53.293L17.2586 54.602H18.6336L18.3806 53.293L17.9516 50.73H17.9296ZM25.2929 53.48H25.2489H25.2929L25.8759 51.071L26.3489 49.3H27.7239L28.2189 57H26.7779L26.5689 52.798H26.5139L25.7219 55.9H24.8199L24.0279 52.798H23.9729L23.7639 57H22.3229L22.8179 49.3H24.1929L24.6659 51.071L25.2489 53.48H25.2929ZM28.8851 57V49.3H32.8341V50.62H30.3921V52.457H32.5701V53.733H30.3921V55.724H32.8781V57H28.8851ZM35.0168 57H33.5098V49.3H35.0168V52.402H36.7768V49.3H38.2838V57H36.7768V53.81H35.0168V57ZM39.1228 49.3H42.0488C42.5108 49.454 42.9031 49.74 43.2258 50.158C43.5558 50.5687 43.7208 51.0747 43.7208 51.676C43.7208 52.6587 43.3321 53.381 42.5548 53.843L43.6658 57H42.1258L41.1908 54.195H40.6078V57H39.1228V49.3ZM40.6078 50.62V52.963H41.5538C41.6785 52.9337 41.8141 52.809 41.9608 52.589C42.1148 52.3617 42.1918 52.0977 42.1918 51.797C42.1918 51.4963 42.1258 51.2323 41.9938 51.005C41.8691 50.7777 41.7445 50.6493 41.6198 50.62H40.6078ZM47.3331 55.724H48.3231C48.5284 55.4673 48.6898 55.0933 48.8071 54.602C48.9318 54.1107 48.9941 53.623 48.9941 53.139C48.9941 51.9877 48.7778 51.148 48.3451 50.62H47.3331V55.724ZM45.8371 57V49.3H49.0271C50.0684 50.224 50.5891 51.478 50.5891 53.062C50.5891 54.6387 50.1014 55.9513 49.1261 57H45.8371ZM54.3951 57L54.1641 55.779H52.4261L52.1951 57H50.6991L52.1841 49.3H54.4611L55.8691 57H54.3951ZM53.2731 50.73L52.8441 53.293L52.6021 54.602H53.9771L53.7241 53.293L53.2951 50.73H53.2731ZM56.2897 49.3H59.2157C59.6777 49.454 60.07 49.74 60.3927 50.158C60.7227 50.5687 60.8877 51.0747 60.8877 51.676C60.8877 52.6587 60.499 53.381 59.7217 53.843L60.8327 57H59.2927L58.3577 54.195H57.7747V57H56.2897V49.3ZM57.7747 50.62V52.963H58.7207C58.8453 52.9337 58.981 52.809 59.1277 52.589C59.2817 52.3617 59.3587 52.0977 59.3587 51.797C59.3587 51.4963 59.2927 51.2323 59.1607 51.005C59.036 50.7777 58.9113 50.6493 58.7867 50.62H57.7747ZM64.2673 53.48H64.2233H64.2673L64.8503 51.071L65.3233 49.3H66.6983L67.1933 57H65.7523L65.5433 52.798H65.4883L64.6963 55.9H63.7943L63.0023 52.798H62.9473L62.7383 57H61.2973L61.7923 49.3H63.1673L63.6403 51.071L64.2233 53.48H64.2673ZM71.1374 57L70.9064 55.779H69.1684L68.9374 57H67.4414L68.9264 49.3H71.2034L72.6114 57H71.1374ZM70.0154 50.73L69.5864 53.293L69.3444 54.602H70.7194L70.4664 53.293L70.0374 50.73H70.0154ZM76.464 57L74.407 52.743L74.352 52.765L74.418 54.063V57H73.032V49.3H74.143L76.167 53.722L76.222 53.7L76.101 52.347V49.3H77.487V57H76.464ZM82.5705 57H80.9645V54.437L79.3365 49.3H80.8325L81.5145 51.643L81.7455 52.996H81.7895L82.0205 51.643L82.7025 49.3H84.1985L82.5705 54.437V57ZM87.2408 57L87.0098 55.779H85.2718L85.0408 57H83.5448L85.0298 49.3H87.3068L88.7148 57H87.2408ZM86.1188 50.73L85.6898 53.293L85.4478 54.602H86.8228L86.5698 53.293L86.1408 50.73H86.1188ZM89.1354 49.3H92.0614C92.5234 49.454 92.9158 49.74 93.2384 50.158C93.5684 50.5687 93.7334 51.0747 93.7334 51.676C93.7334 52.6587 93.3448 53.381 92.5674 53.843L93.6784 57H92.1384L91.2034 54.195H90.6204V57H89.1354V49.3ZM90.6204 50.62V52.963H91.5664C91.6911 52.9337 91.8268 52.809 91.9734 52.589C92.1274 52.3617 92.2044 52.0977 92.2044 51.797C92.2044 51.4963 92.1384 51.2323 92.0064 51.005C91.8818 50.7777 91.7571 50.6493 91.6324 50.62H90.6204Z" fill="#292929"/>
<path d="M55.2037 0L53.7148 2.40503L59.8992 17.1215L66.0836 31.838V0H55.2037Z" fill="url(#paint0_linear_2355_2)"/>
<path d="M37.9096 0L39.3984 2.40503L33.2141 17.1215L27.0297 31.838V0H37.9096Z" fill="url(#paint1_linear_2355_2)"/>
<path d="M41.3464 0L26 36.8771H36.7654L46.3855 12.2542L50.5084 8.81844L51.5391 0H41.3464Z" fill="url(#paint2_linear_2355_2)"/>
<path d="M51.6536 0L67 36.8771H56.2346L46.6145 12.2542L42.4916 8.81844L41.4609 0H51.6536Z" fill="url(#paint3_linear_2355_2)"/>
<path d="M42.342 24.5831L46.5179 30.6917L50.0505 24.5843L46.519 14.0845L42.342 24.5831Z" fill="url(#paint4_linear_2355_2)"/>
<path d="M50.6932 24.5831L46.5173 30.6917L42.9846 24.5843L46.5161 14.0845L50.6932 24.5831Z" fill="url(#paint5_linear_2355_2)"/>
<defs>
<linearGradient id="paint0_linear_2355_2" x1="59.8992" y1="0" x2="59.8992" y2="31.838" gradientUnits="userSpaceOnUse">
<stop stop-color="#0909A3" stop-opacity="0.6"/>
<stop offset="1" stop-color="#0909A3"/>
</linearGradient>
<linearGradient id="paint1_linear_2355_2" x1="33.2141" y1="0" x2="33.2141" y2="31.838" gradientUnits="userSpaceOnUse">
<stop stop-color="#0909A3" stop-opacity="0.6"/>
<stop offset="1" stop-color="#0909A3"/>
</linearGradient>
<linearGradient id="paint2_linear_2355_2" x1="38.7696" y1="0" x2="38.7696" y2="36.8771" gradientUnits="userSpaceOnUse">
<stop offset="0.320833" stop-color="#AE242A"/>
<stop offset="1" stop-color="#AE242A" stop-opacity="0.56"/>
</linearGradient>
<linearGradient id="paint3_linear_2355_2" x1="54.2304" y1="0" x2="54.2304" y2="36.8771" gradientUnits="userSpaceOnUse">
<stop offset="0.320833" stop-color="#AE242A"/>
<stop offset="1" stop-color="#AE242A" stop-opacity="0.56"/>
</linearGradient>
<linearGradient id="paint4_linear_2355_2" x1="42.3664" y1="26.5402" x2="50.6705" y2="18.236" gradientUnits="userSpaceOnUse">
<stop stop-color="#0909A3" stop-opacity="0.6"/>
<stop offset="1" stop-color="#0909A3"/>
</linearGradient>
<linearGradient id="paint5_linear_2355_2" x1="50.6688" y1="26.5402" x2="42.3646" y2="18.236" gradientUnits="userSpaceOnUse">
<stop stop-color="#0909A3" stop-opacity="0.6"/>
<stop offset="1" stop-color="#0909A3"/>
</linearGradient>
</defs>
</svg>
